<svg width="167" height="50" viewBox="0 0 167 50" fill="none" xmlns="http://www.w3.org/2000/svg">
<path fill-rule="evenodd" clip-rule="evenodd" d="M57.2591 31.0658C57.7431 29.1237 58 27.0919 58 25C58 11.1929 46.8071 0 33 0C21.5304 0 11.8647 7.72388 8.92077 18.254H39.746V20.907L30.8362 31.0658H57.2591ZM56.2816 34.127C52.6356 43.4201 43.5862 50 33 50C19.1929 50 8 38.8071 8 25C8 23.7481 8.09202 22.5177 8.26966 21.3152H35.1638L26.254 31.4739V34.127H56.2816Z" fill="black"/>
<path d="M81.122 14.7V14.664C81.122 11.118 78.386 8.4 74.426 8.4H69.512V21H74.426C78.386 21 81.122 18.246 81.122 14.7ZM78.224 14.736C78.224 16.968 76.694 18.498 74.426 18.498H72.284V10.902H74.426C76.694 10.902 78.224 12.468 78.224 14.7V14.736ZM96.1861 21V18.534H89.3461V15.888H95.2861V13.422H89.3461V10.866H96.0961V8.4H86.5921V21H96.1861ZM110.759 17.274V17.238C110.759 15.042 109.319 14.124 106.763 13.458C104.585 12.9 104.045 12.63 104.045 11.802V11.766C104.045 11.154 104.603 10.668 105.665 10.668C106.727 10.668 107.825 11.136 108.941 11.91L110.381 9.822C109.103 8.796 107.537 8.22 105.701 8.22C103.127 8.22 101.291 9.732 101.291 12.018V12.054C101.291 14.556 102.929 15.258 105.467 15.906C107.573 16.446 108.005 16.806 108.005 17.508V17.544C108.005 18.282 107.321 18.732 106.187 18.732C104.747 18.732 103.559 18.138 102.425 17.202L100.787 19.164C102.299 20.514 104.225 21.18 106.133 21.18C108.851 21.18 110.759 19.776 110.759 17.274ZM119.062 21V8.4H116.29V21H119.062ZM136.659 19.218V13.746H131.187V16.14H133.977V17.94C133.275 18.444 132.375 18.696 131.367 18.696C129.135 18.696 127.551 17.004 127.551 14.7V14.664C127.551 12.522 129.153 10.74 131.169 10.74C132.627 10.74 133.491 11.208 134.463 12.018L136.209 9.912C134.895 8.796 133.527 8.184 131.259 8.184C127.443 8.184 124.653 11.118 124.653 14.7V14.736C124.653 18.462 127.353 21.216 131.277 21.216C133.581 21.216 135.363 20.316 136.659 19.218ZM153.522 21V8.4H150.786V16.158L144.882 8.4H142.326V21H145.062V12.99L151.164 21H153.522ZM79.628 43V40.57H72.698L79.628 32.506V30.4H69.35V32.83H76.064L69.134 40.894V43H79.628ZM97.4573 36.7V36.664C97.4573 33.082 94.6673 30.184 90.7793 30.184C86.8913 30.184 84.0653 33.118 84.0653 36.7V36.736C84.0653 40.318 86.8553 43.216 90.7433 43.216C94.6313 43.216 97.4573 40.282 97.4573 36.7ZM94.5593 36.736C94.5593 38.896 93.0113 40.66 90.7793 40.66C88.5473 40.66 86.9633 38.86 86.9633 36.7V36.664C86.9633 34.504 88.5113 32.74 90.7433 32.74C92.9753 32.74 94.5593 34.54 94.5593 36.7V36.736ZM114.112 43V30.4H111.376V38.158L105.472 30.4H102.916V43H105.652V34.99L111.754 43H114.112ZM129.731 43V40.534H122.891V37.888H128.831V35.422H122.891V32.866H129.641V30.4H120.137V43H129.731Z" fill="black"/>
</svg>
