<svg width="169" height="112" viewBox="0 0 169 112" fill="none" xmlns="http://www.w3.org/2000/svg">
<path d="M168.543 55.9661C121.521 35.0146 169.911 55.2434 112.743 36.2229C99.8398 31.9301 65.3188 11.9755 74.5086 21.9982C87.1903 35.8291 107.88 39.2018 124.11 48.6207C126.041 49.7413 130.776 54.3662 128.733 53.4673C69.058 27.2179 131.921 46.9694 145.848 51.1124C148.153 51.7982 154.697 54.7393 152.341 54.2586C140.094 51.76 128.228 47.6055 115.998 45.0226C111.207 44.0107 98.4678 39.5643 101.386 43.497C109.644 54.6261 195.316 86.2524 86.0814 50.8729C77.6449 48.1404 121.695 57.3658 130.92 63.3142C131.576 63.7372 129.338 63.3849 128.581 63.1946C122.409 61.6427 116.141 60.33 110.181 58.0996C7.93217 19.8409 152.94 70.2403 130.658 65.1735C115.18 61.6536 100.002 56.9184 84.6259 52.9719C69.5811 49.1103 129.038 63.0353 121.281 66.8058C116.125 69.3121 110.416 62.9986 105.369 60.2789C98.9413 56.8149 79.7096 48.0716 87.0066 48.3349C103.786 48.9405 151.505 66.9361 135.662 61.3722L150.381 72.4225C124.943 63.4888 100.246 52.4161 76.0876 40.4491C-123.114 -58.2243 137.188 61.49 122.655 60.1086C119.349 59.7944 75.63 47.7188 79.2467 44.0062C85.6168 37.467 138.01 69.0352 143.853 73.9649C144.422 74.4452 143.027 75.7139 142.296 75.5681L50.7705 52.3882C10.3184 44.3149 109.22 62.4064 115.154 74.5207C115.573 75.3757 78.6137 65.3032 93.2198 64.5595C101.456 64.1401 124.35 69.7023 116.623 72.5853L120.554 77.4933C116.457 79.022 111.791 76.9279 107.522 75.981C90.2909 72.1592 73.7432 64.4385 56.1362 63.2058C42.3595 62.2412 83.0966 69.7549 95.805 75.1607C101.672 77.6562 117.412 87.7072 111.133 86.5999C103.015 85.1682 81.7268 75.7939 89.7944 74.1006C100.657 71.8207 111.175 80.2313 121.448 84.435C125.695 86.1731 137.597 92.5756 133.072 91.8112C65.0679 80.3221 59.9825 66.3066 119.564 89.9999C124.179 91.8351 135.969 95.6343 131.857 98.4187C124.581 103.345 114.263 100.372 105.519 99.5091C97.0943 98.6774 73.5792 89.0863 80.872 93.385C91.4899 99.6437 104.39 100.864 115.786 105.561C117.939 106.448 121.438 107.684 121.181 109.999C120.965 111.941 117.221 110.191 115.324 109.72C103.027 106.663 90.6686 103.678 78.7257 99.444C75.6084 98.3389 72.7218 96.3247 70.5361 93.8425C69.6663 92.8547 75.6639 94.9843 74.42 94.5541C64.3383 91.0673 49.1615 93.9872 43.9849 84.6597C39.9737 77.4321 60.58 83.3644 68.7816 84.3945C82.5769 86.1272 101.902 104.47 109.616 92.9028C116.873 82.0196 62.2766 70.6747 73.7911 76.8823L89.4367 83.0841C92.8838 84.9424 95.432 88.1523 98.6996 90.3107C99.5765 90.8899 97.3626 88.6889 96.6941 87.8779" stroke="#979797"/>
</svg>
