<svg width="30" height="30" viewBox="0 0 30 30" fill="none" xmlns="http://www.w3.org/2000/svg">
<path fill-rule="evenodd" clip-rule="evenodd" d="M24.4688 8.4375H5.53125C5.05403 8.43974 4.65266 8.79595 4.59375 9.26953L2.92969 24.2695C2.89976 24.5338 2.98352 24.7984 3.1601 24.9974C3.33669 25.1963 3.58947 25.3109 3.85547 25.3125H26.1445C26.4105 25.3109 26.6633 25.1963 26.8399 24.9974C27.0165 24.7984 27.1002 24.5338 27.0703 24.2695L25.4062 9.26953C25.3473 8.79595 24.946 8.43974 24.4688 8.4375Z" stroke="white" stroke-width="1.875" stroke-linecap="round" stroke-linejoin="round"/>
<path d="M10.3125 12.1875V8.4375C10.3125 5.84867 12.4112 3.75 15 3.75C17.5888 3.75 19.6875 5.84867 19.6875 8.4375V12.1875" stroke="white" stroke-width="1.875" stroke-linecap="round" stroke-linejoin="round"/>
</svg>
