<svg width="76" height="88" viewBox="0 0 76 88" fill="none" xmlns="http://www.w3.org/2000/svg">
<path fill-rule="evenodd" clip-rule="evenodd" d="M8.60773 70.9089C24.3914 80.0216 44.5739 74.6138 53.6866 58.8301C62.7993 43.0464 57.3914 22.864 41.6077 13.7513L8.60773 70.9089Z" fill="#A6A6A6"/>
<mask id="path-2-inside-1_1339_218" fill="white">
<path fill-rule="evenodd" clip-rule="evenodd" d="M5.81348 57.7488C21.5971 66.8615 41.7796 61.4536 50.8923 45.6699C60.005 29.8863 54.5971 9.7038 38.8135 0.591104L5.81348 57.7488Z"/>
</mask>
<path d="M5.81348 57.7488L4.08143 56.7488L3.08143 58.4808L4.81348 59.4808L5.81348 57.7488ZM38.8135 0.591104L39.8135 -1.14095L38.0814 -2.14095L37.0814 -0.408896L38.8135 0.591104ZM49.1603 44.6699C40.5998 59.497 21.6405 64.5771 6.81348 56.0167L4.81348 59.4808C21.5537 69.1458 42.9594 63.4102 52.6244 46.6699L49.1603 44.6699ZM37.8135 2.32315C52.6405 10.8836 57.7207 29.8429 49.1603 44.6699L52.6244 46.6699C62.2893 29.9297 56.5537 8.52404 39.8135 -1.14095L37.8135 2.32315ZM37.0814 -0.408896L4.08143 56.7488L7.54553 58.7488L40.5455 1.5911L37.0814 -0.408896Z" fill="black" mask="url(#path-2-inside-1_1339_218)"/>
</svg>
