<svg width="147" height="97" viewBox="0 0 147 97" fill="none" xmlns="http://www.w3.org/2000/svg">
<path d="M0.478099 48.4694C41.2214 30.3155 -0.707855 47.8433 48.8275 31.3624C60.0074 27.6428 89.9191 10.3526 81.9563 19.037C70.9679 31.0212 53.0404 33.9436 38.9777 42.1049C37.3046 43.0758 33.2017 47.0832 34.9724 46.3043C86.6791 23.5598 32.2096 40.674 20.1423 44.2638C18.1449 44.858 12.4746 47.4065 14.5164 46.9899C25.1282 44.825 35.4101 41.2252 46.0067 38.9872C50.1584 38.1103 61.1963 34.2577 58.6677 37.6653C51.5121 47.3083 -22.7204 74.7118 71.9287 44.0563C79.2388 41.6887 41.0701 49.6822 33.0772 54.8364C32.5088 55.2029 34.4476 54.8977 35.1036 54.7328C40.4517 53.3881 45.8825 52.2506 51.0473 50.3181C139.643 17.1678 13.9974 60.8377 33.3038 56.4475C46.7159 53.3976 59.8673 49.2946 73.19 45.875C86.2259 42.5291 34.708 54.5947 41.4293 57.8618C45.8968 60.0334 50.8437 54.563 55.2165 52.2064C60.786 49.2049 77.4498 41.629 71.1271 41.8572C56.5878 42.382 15.2411 57.9747 28.968 53.1537L16.215 62.7286C38.2558 54.9877 59.6551 45.3935 80.5882 35.0243C253.191 -50.4739 27.6463 53.2558 40.2386 52.0589C43.1028 51.7866 80.9847 41.3233 77.8509 38.1064C72.3313 32.4404 26.9338 59.7936 21.871 64.065C21.3777 64.4812 22.5868 65.5805 23.2198 65.4541L102.525 45.3693C137.576 38.374 51.8797 54.0498 46.7378 64.5466C46.3749 65.2874 78.3994 56.5599 65.7435 55.9154C58.6069 55.552 38.77 60.3715 45.4651 62.8696L42.0594 67.1222C45.6094 68.4468 49.6517 66.6324 53.3508 65.8119C68.2814 62.5004 82.6196 55.8106 97.8756 54.7425C109.813 53.9067 74.515 60.4171 63.5035 65.1011C58.4202 67.2634 44.7818 75.9724 50.222 75.0129C57.2561 73.7724 75.702 65.6497 68.7116 64.1826C59.2994 62.2071 50.1854 69.4947 41.2846 73.1371C37.6045 74.6431 27.2913 80.1908 31.2121 79.5284C90.1365 69.5734 94.5429 57.4293 42.917 77.9589C38.9183 79.5491 28.7022 82.841 32.2656 85.2536C38.5701 89.522 47.51 86.9465 55.0867 86.1985C62.3863 85.4778 82.7617 77.1673 76.4426 80.892C67.2424 86.3151 56.0645 87.3725 46.1907 91.4422C44.3253 92.211 41.2934 93.2822 41.516 95.2875C41.7028 96.9707 44.9472 95.4543 46.5907 95.0458C57.2456 92.3968 67.954 89.8105 78.3024 86.142C81.0034 85.1845 83.5046 83.4392 85.3984 81.2885C86.1521 80.4325 80.9553 82.2778 82.0331 81.905C90.7687 78.8838 103.919 81.4138 108.404 73.3318C111.88 67.0692 94.0252 72.2094 86.9187 73.102C74.9653 74.6033 58.2207 90.4973 51.5368 80.4743C45.2483 71.0442 92.5551 61.2141 82.578 66.5928L69.0214 71.9665C66.0346 73.5768 63.8267 76.358 60.9954 78.2282C60.2356 78.7301 62.1539 76.823 62.7331 76.1203" stroke="#979797"/>
</svg>
