<svg width="73" height="73" viewBox="0 0 73 73" fill="none" xmlns="http://www.w3.org/2000/svg">
<path fill-rule="evenodd" clip-rule="evenodd" d="M58.9615 2.80768H15.9102L12.7467 13.3529C11.2239 15.5071 10.2949 18.376 10.2949 21.5256C10.2949 28.2147 14.485 33.6372 19.6538 33.6372C23.0124 33.6372 25.9578 31.3477 27.609 27.909C29.2601 31.3477 32.2055 33.6372 35.5641 33.6372C40.7329 33.6372 44.9231 28.2147 44.9231 21.5256C44.9231 28.2147 49.1132 33.6372 54.282 33.6372C59.4509 33.6372 63.641 28.2147 63.641 21.5256C63.641 20.8904 63.6032 20.2666 63.5304 19.6577L63.641 19.6538L63.4017 18.7923C63.2347 17.8551 62.9836 16.9595 62.6593 16.1195L58.9615 2.80768ZM44.9697 20.309C44.9389 20.7091 44.9231 21.115 44.9231 21.5256C44.9231 21.1161 44.9074 20.7113 44.8767 20.3122L44.9697 20.309Z" fill="#F64F00"/>
<path d="M9.125 63.875H63.875" stroke="black" stroke-width="4.5625" stroke-linecap="round" stroke-linejoin="round"/>
<path d="M14.6575 3.27563V0.994385C13.7247 0.994385 12.8859 1.56231 12.5394 2.4284L14.6575 3.27563ZM14.5399 3.56979L16.6579 4.41703L16.6579 4.41702L14.5399 3.56979ZM7.05267 22.2877L4.93459 21.4405C4.46667 22.6103 5.03565 23.9379 6.20544 24.4058L7.05267 22.2877ZM7.92163 22.6353L7.0744 24.7534C7.63615 24.9781 8.26415 24.9705 8.82026 24.7321C9.37637 24.4938 9.81502 24.0443 10.0397 23.4826L7.92163 22.6353ZM15.2911 4.21153V1.93028C14.3583 1.93028 13.5195 2.4982 13.1731 3.3643L15.2911 4.21153ZM57.6774 4.21153L59.8625 3.55602C59.573 2.59109 58.6849 1.93028 57.6774 1.93028V4.21153ZM63.1928 22.596L61.0077 23.2515C61.1816 23.831 61.5785 24.3177 62.1112 24.6046C62.644 24.8914 63.2688 24.9549 63.8483 24.781L63.1928 22.596ZM64.0892 22.3271L64.7447 24.5121C65.9515 24.1501 66.6363 22.8783 66.2743 21.6716L64.0892 22.3271ZM58.4738 3.60912L56.2888 4.26462L56.2888 4.26463L58.4738 3.60912ZM58.3738 3.27563L60.5588 2.62013C60.2693 1.65519 59.3812 0.994385 58.3738 0.994385V3.27563ZM9.12497 24.3333V22.0521C7.86507 22.0521 6.84372 23.0734 6.84372 24.3333H9.12497ZM63.875 24.3333H66.1562C66.1562 23.0734 65.1349 22.0521 63.875 22.0521V24.3333ZM14.6575 5.55688H14.9743V0.994385H14.6575V5.55688ZM16.6579 4.41702L16.7756 4.12287L12.5394 2.4284L12.4218 2.72256L16.6579 4.41702ZM9.17076 23.135L16.6579 4.41703L12.4218 2.72256L4.93459 21.4405L9.17076 23.135ZM8.76887 20.5172L7.89991 20.1697L6.20544 24.4058L7.0744 24.7534L8.76887 20.5172ZM13.1731 3.3643L5.80354 21.7881L10.0397 23.4826L17.4092 5.05877L13.1731 3.3643ZM57.6774 1.93028H15.2911V6.49278H57.6774V1.93028ZM65.3778 21.9405L59.8625 3.55602L55.4924 4.86704L61.0077 23.2515L65.3778 21.9405ZM63.4337 20.142L62.5373 20.411L63.8483 24.781L64.7447 24.5121L63.4337 20.142ZM56.2888 4.26463L61.9042 22.9826L66.2743 21.6716L60.6589 2.95361L56.2888 4.26463ZM56.1887 3.93114L56.2888 4.26462L60.6589 2.95361L60.5588 2.62013L56.1887 3.93114ZM58.0256 5.55688H58.3738V0.994385H58.0256V5.55688ZM14.9743 5.55688H58.0256V0.994385H14.9743V5.55688ZM6.84372 24.3333C6.84372 30.6328 11.9505 35.7396 18.25 35.7396V31.1771C14.4703 31.1771 11.4062 28.113 11.4062 24.3333H6.84372ZM27.375 22.0521H9.12497V26.6146H27.375V22.0521ZM18.25 35.7396C24.5495 35.7396 29.6562 30.6328 29.6562 24.3333H25.0937C25.0937 28.113 22.0297 31.1771 18.25 31.1771V35.7396ZM45.625 22.0521H27.375V26.6146H45.625V22.0521ZM25.0937 24.3333C25.0937 30.6328 30.2005 35.7396 36.5 35.7396V31.1771C32.7203 31.1771 29.6562 28.113 29.6562 24.3333H25.0937ZM36.5 35.7396C42.7995 35.7396 47.9062 30.6328 47.9062 24.3333H43.3437C43.3437 28.113 40.2797 31.1771 36.5 31.1771V35.7396ZM63.875 22.0521H45.625V26.6146H63.875V22.0521ZM54.75 35.7396C61.0495 35.7396 66.1562 30.6328 66.1562 24.3333H61.5937C61.5937 28.113 58.5297 31.1771 54.75 31.1771V35.7396ZM43.3437 24.3333C43.3437 30.6328 48.4505 35.7396 54.75 35.7396V31.1771C50.9703 31.1771 47.9062 28.113 47.9062 24.3333H43.3437Z" fill="black"/>
<path d="M15.2083 63.875V33.0021" stroke="black" stroke-width="4.5625" stroke-linecap="round" stroke-linejoin="round"/>
<path d="M57.7917 63.875V33.0021" stroke="black" stroke-width="4.5625" stroke-linecap="round" stroke-linejoin="round"/>
<path d="M27.375 63.875V51.7083C27.375 48.3486 30.0986 45.625 33.4583 45.625H39.5417C42.9014 45.625 45.625 48.3486 45.625 51.7083V63.875" stroke="black" stroke-width="4.5625" stroke-linecap="round" stroke-linejoin="round"/>
</svg>
